<svg width="21" height="20" viewBox="0 0 21 20" fill="none" xmlns="http://www.w3.org/2000/svg">
<path d="M17.85 4.75005H16.8V3.70005C16.8 2.86462 16.4681 2.0634 15.8774 1.47266C15.2866 0.881923 14.4854 0.550049 13.65 0.550049H3.15C2.31457 0.550049 1.51335 0.881923 0.922614 1.47266C0.331874 2.0634 0 2.86462 0 3.70005V16.3C0 17.1355 0.331874 17.9367 0.922614 18.5274C1.51335 19.1182 2.31457 19.45 3.15 19.45H17.85C18.6854 19.45 19.4866 19.1182 20.0774 18.5274C20.6681 17.9367 21 17.1355 21 16.3V7.90005C21 7.06462 20.6681 6.2634 20.0774 5.67266C19.4866 5.08192 18.6854 4.75005 17.85 4.75005ZM3.15 2.65005H13.65C13.9285 2.65005 14.1955 2.76067 14.3925 2.95759C14.5894 3.1545 14.7 3.42157 14.7 3.70005V4.75005H3.15C2.87152 4.75005 2.60445 4.63942 2.40754 4.44251C2.21062 4.2456 2.1 3.97853 2.1 3.70005C2.1 3.42157 2.21062 3.1545 2.40754 2.95759C2.60445 2.76067 2.87152 2.65005 3.15 2.65005ZM18.9 13.15H17.85C17.5715 13.15 17.3044 13.0394 17.1075 12.8425C16.9106 12.6456 16.8 12.3785 16.8 12.1C16.8 11.8216 16.9106 11.5545 17.1075 11.3576C17.3044 11.1607 17.5715 11.05 17.85 11.05H18.9V13.15ZM18.9 8.95005H17.85C17.0146 8.95005 16.2134 9.28192 15.6226 9.87266C15.0319 10.4634 14.7 11.2646 14.7 12.1C14.7 12.9355 15.0319 13.7367 15.6226 14.3274C16.2134 14.9182 17.0146 15.25 17.85 15.25H18.9V16.3C18.9 16.5785 18.7894 16.8456 18.5925 17.0425C18.3955 17.2394 18.1285 17.35 17.85 17.35H3.15C2.87152 17.35 2.60445 17.2394 2.40754 17.0425C2.21062 16.8456 2.1 16.5785 2.1 16.3V6.67155C2.43733 6.79022 2.79241 6.85058 3.15 6.85005H17.85C18.1285 6.85005 18.3955 6.96067 18.5925 7.15759C18.7894 7.3545 18.9 7.62157 18.9 7.90005V8.95005Z" fill="#03FFB3"/>
</svg>
