<svg width="43" height="66" viewBox="0 0 43 66" fill="none" xmlns="http://www.w3.org/2000/svg">
<path d="M29.5781 23.4648C29.5781 22.0999 31.0608 21.2513 32.2376 21.9426L40.4822 26.7856C41.5617 27.4197 42.2247 28.578 42.2247 29.83V43.1197C42.2247 44.4846 40.742 45.3332 39.5651 44.6419L31.3206 39.7989C30.2411 39.1648 29.5781 38.0065 29.5781 36.7545V23.4648Z" fill="#03FFB3"/>
<path d="M0 2.56036C0 1.19547 1.48266 0.346866 2.65952 1.03817L10.9041 5.88113C11.9836 6.51523 12.6465 7.67355 12.6465 8.92549V22.2152C12.6465 23.5801 11.1639 24.4287 9.98701 23.7374L1.74245 18.8944C0.662971 18.2603 0 17.102 0 15.8501V2.56036Z" fill="#03FFB3"/>
<path d="M0 23.4648C0 22.0999 1.48266 21.2513 2.65952 21.9426L10.9041 26.7856C11.9836 27.4197 12.6465 28.578 12.6465 29.83V43.1197C12.6465 44.4845 11.1639 45.3331 9.98701 44.6418L1.74245 39.7989C0.662971 39.1648 0 38.0065 0 36.7545V23.4648Z" fill="#03FFB3"/>
<path d="M17.4479 44.6418C16.271 45.3332 14.7883 44.4846 14.7883 43.1197V29.83C14.7883 28.578 15.4513 27.4197 16.5308 26.7856L24.7753 21.9426C25.9522 21.2513 27.4349 22.0999 27.4349 23.4648V36.7545C27.4349 38.0065 26.7719 39.1648 25.6924 39.7989L17.4479 44.6418Z" fill="#0D684D"/>
<path d="M17.4479 65.5465C16.271 66.2378 14.7883 65.3892 14.7883 64.0243V50.7346C14.7883 49.4827 15.4513 48.3244 16.5308 47.6903L24.7753 42.8473C25.9522 42.156 27.4349 43.0046 27.4349 44.3695V57.6592C27.4349 58.9111 26.7719 60.0695 25.6924 60.7036L17.4479 65.5465Z" fill="#0D684D"/>
</svg>
